<?xml version="1.0" encoding="utf-8"?>
<svg version="1.1" viewBox="41.998 49.503 158 158" fill="none" stroke="none" stroke-linecap="square" stroke-miterlimit="10" preserveAspectRatio="none" xmlns="http://www.w3.org/2000/svg">
  <clipPath id="p.0">
    <path d="m0 0l250.0 0l0 250.0l-250.0 0l0 -250.0z" clip-rule="nonzero"/>
  </clipPath>
  <g clip-path="url(#p.0)">
    <path d="m65.140335 82.367035l0 0c6.2273407 -11.497963 17.635262 -17.27243 25.480316 -12.897636l0 0c3.7673264 2.1008453 6.192398 6.309059 6.7417145 11.698891c0.5493164 5.389824 -0.8221054 11.5197525 -3.8125763 17.041267l0 0c-6.2273407 11.497955 -17.635262 17.272423 -25.480316 12.897636l0 0c-7.8450546 -4.374794 -9.156471 -17.242203 -2.9291382 -28.740158z" fill-rule="nonzero" style="fill: rgb(0, 0, 0);"/>
    <path stroke="#000000" stroke-linejoin="round" stroke-linecap="butt" d="m65.140335 82.367035l0 0c6.2273407 -11.497963 17.635262 -17.27243 25.480316 -12.897636l0 0c3.7673264 2.1008453 6.192398 6.309059 6.7417145 11.698891c0.5493164 5.389824 -0.8221054 11.5197525 -3.8125763 17.041267l0 0c-6.2273407 11.497955 -17.635262 17.272423 -25.480316 12.897636l0 0c-7.8450546 -4.374794 -9.156471 -17.242203 -2.9291382 -28.740158z" fill-rule="nonzero" stroke-width="2.0"/>
    <path d="m116.11995 65.762245l0 0c6.227333 -11.497963 17.635254 -17.272434 25.480316 -12.89764l0 0c3.7673187 2.1008492 6.192383 6.309063 6.7417145 11.698887c0.5493164 5.389824 -0.82211304 11.5197525 -3.8125916 17.041267l0 0c-6.2273254 11.497963 -17.635254 17.27243 -25.480309 12.897644l0 0c-7.8450546 -4.374794 -9.156471 -17.242203 -2.9291306 -28.740158z" fill-rule="nonzero" style="fill: rgb(0, 0, 0);"/>
    <path stroke="#000000" stroke-linejoin="round" stroke-linecap="butt" d="m116.11995 65.762245l0 0c6.227333 -11.497963 17.635254 -17.272434 25.480316 -12.89764l0 0c3.7673187 2.1008492 6.192383 6.309063 6.7417145 11.698887c0.5493164 5.389824 -0.82211304 11.5197525 -3.8125916 17.041267l0 0c-6.2273254 11.497963 -17.635254 17.27243 -25.480309 12.897644l0 0c-7.8450546 -4.374794 -9.156471 -17.242203 -2.9291306 -28.740158z" fill-rule="nonzero" stroke-width="2.0"/>
    <path d="m150.2256 90.54437l0 0c6.2273407 -11.497955 17.635254 -17.27243 25.480316 -12.897636l0 0c3.7673187 2.1008453 6.192383 6.309067 6.7417145 11.698891c0.5493164 5.389824 -0.82211304 11.5197525 -3.8125916 17.041267l0 0c-6.2273254 11.497955 -17.635254 17.27243 -25.4803 12.897636l0 0c-7.8450623 -4.3747864 -9.156479 -17.242195 -2.9291382 -28.740158z" fill-rule="nonzero" style="fill: rgb(0, 0, 0);"/>
    <path stroke="#000000" stroke-linejoin="round" stroke-linecap="butt" d="m150.2256 90.54437l0 0c6.2273407 -11.497955 17.635254 -17.27243 25.480316 -12.897636l0 0c3.7673187 2.1008453 6.192383 6.309067 6.7417145 11.698891c0.5493164 5.389824 -0.82211304 11.5197525 -3.8125916 17.041267l0 0c-6.2273254 11.497955 -17.635254 17.27243 -25.4803 12.897636l0 0c-7.8450623 -4.3747864 -9.156479 -17.242195 -2.9291382 -28.740158z" fill-rule="nonzero" stroke-width="2.0"/>
    <path d="m161.02762 145.03955l0 0c6.2273407 -11.497955 17.63527 -17.272423 25.480316 -12.897629l0 0c3.767334 2.1008453 6.192398 6.309067 6.7417145 11.698883c0.5493164 5.3898315 -0.82211304 11.51976 -3.8125763 17.041275l0 0c-6.2273407 11.497955 -17.63527 17.27243 -25.480316 12.897629l0 0c-7.845047 -4.3747864 -9.156479 -17.242188 -2.9291382 -28.740158z" fill-rule="nonzero" style="fill: rgb(0, 0, 0);"/>
    <path stroke="#000000" stroke-linejoin="round" stroke-linecap="butt" d="m161.02762 145.03955l0 0c6.2273407 -11.497955 17.63527 -17.272423 25.480316 -12.897629l0 0c3.767334 2.1008453 6.192398 6.309067 6.7417145 11.698883c0.5493164 5.3898315 -0.82211304 11.51976 -3.8125763 17.041275l0 0c-6.2273407 11.497955 -17.63527 17.27243 -25.480316 12.897629l0 0c-7.845047 -4.3747864 -9.156479 -17.242188 -2.9291382 -28.740158z" fill-rule="nonzero" stroke-width="2.0"/>
    <path d="m144.0513 181.72409c-0.23738098 -4.0475006 -2.140808 -11.982788 -2.855133 -16.664764c-0.71432495 -4.6819763 -1.1136017 -6.9037323 -1.4308472 -11.427078c-0.31723022 -4.523361 0.08314514 -10.634003 -0.4725647 -15.713058c-0.5557251 -5.079071 -1.0359497 -10.951233 -2.8616943 -14.761353c-1.8257599 -3.8101273 -4.839508 -6.273628 -8.092819 -8.0993805c-3.2533188 -1.8257523 -6.9026337 -3.330986 -11.427086 -2.855133c-4.524452 0.47585297 -10.560699 3.725891 -15.719627 5.7102585c-5.1589203 1.984375 -8.806046 4.3702087 -15.233917 6.195961c-6.4278717 1.8257523 -17.618668 2.4569473 -23.333305 4.758545c-5.714634 2.3016052 -8.493191 5.003601 -10.95451 9.051102c-2.461319 4.0475006 -4.369114 10.154846 -3.813404 15.233917c0.55570984 5.079071 3.576023 11.827454 7.1476707 15.240494c3.5716476 3.413025 8.330196 3.5705414 14.282215 5.237686c5.952011 1.6671295 15.556625 0.7176056 21.429878 4.765106c5.873253 4.0475006 9.603523 15.075302 13.809639 19.519897c4.2061234 4.4445953 6.585396 6.4333496 11.427086 7.1476746c4.84169 0.71432495 13.178452 -0.24176025 17.623047 -2.8616943c4.4445953 -2.619934 7.2986298 -9.4449005 9.044525 -12.857925c1.7458954 -3.4130402 1.6682281 -3.5727386 1.4308472 -7.6202545z" fill-rule="nonzero" style="fill: rgb(0, 0, 0);"/>
    <path stroke="#000000" stroke-linejoin="round" stroke-linecap="butt" d="m144.0513 181.72409c-0.23738098 -4.0475006 -2.140808 -11.982788 -2.855133 -16.664764c-0.71432495 -4.6819763 -1.1136017 -6.9037323 -1.4308472 -11.427078c-0.31723022 -4.523361 0.08314514 -10.634003 -0.4725647 -15.713058c-0.5557251 -5.079071 -1.0359497 -10.951233 -2.8616943 -14.761353c-1.8257599 -3.8101273 -4.839508 -6.273628 -8.092819 -8.0993805c-3.2533188 -1.8257523 -6.9026337 -3.330986 -11.427086 -2.855133c-4.524452 0.47585297 -10.560699 3.725891 -15.719627 5.7102585c-5.1589203 1.984375 -8.806046 4.3702087 -15.233917 6.195961c-6.4278717 1.8257523 -17.618668 2.4569473 -23.333305 4.758545c-5.714634 2.3016052 -8.493191 5.003601 -10.95451 9.051102c-2.461319 4.0475006 -4.369114 10.154846 -3.813404 15.233917c0.55570984 5.079071 3.576023 11.827454 7.1476707 15.240494c3.5716476 3.413025 8.330196 3.5705414 14.282215 5.237686c5.952011 1.6671295 15.556625 0.7176056 21.429878 4.765106c5.873253 4.0475006 9.603523 15.075302 13.809639 19.519897c4.2061234 4.4445953 6.585396 6.4333496 11.427086 7.1476746c4.84169 0.71432495 13.178452 -0.24176025 17.623047 -2.8616943c4.4445953 -2.619934 7.2986298 -9.4449005 9.044525 -12.857925c1.7458954 -3.4130402 1.6682281 -3.5727386 1.4308472 -7.6202545z" fill-rule="nonzero" stroke-width="2.0"/>
  </g>
</svg>