<?xml version="1.0" encoding="utf-8"?>
<svg version="1.1" fill="none" stroke="none" stroke-linecap="square" stroke-miterlimit="10" viewBox="46.255 50.017 148.39 156.674" preserveAspectRatio="none" xmlns="http://www.w3.org/2000/svg">
  <clipPath id="p.0">
    <path d="m0 0l250.0 0l0 250.0l-250.0 0l0 -250.0z" clip-rule="nonzero"/>
  </clipPath>
  <g clip-path="url(#p.0)">
    <g>
      <path stroke="#000000" stroke-width="2.0" stroke-linejoin="round" stroke-linecap="butt" d="M 65.14 82.367 C 71.368 70.869 82.776 65.095 90.621 69.469 C 94.388 71.57 96.813 75.778 97.362 81.168 C 97.912 86.558 96.54 92.688 93.55 98.21 C 87.322 109.708 75.915 115.482 68.069 111.107 C 60.224 106.732 58.913 93.865 65.14 82.367 L 65.14 82.367 Z" fill-rule="nonzero" style=""/>
      <path stroke="#000000" stroke-width="2.0" stroke-linejoin="round" stroke-linecap="butt" d="M 116.12 65.762 C 122.347 54.264 133.755 48.49 141.6 52.865 C 145.368 54.965 147.793 59.174 148.342 64.563 C 148.891 69.953 147.52 76.083 144.529 81.605 C 138.302 93.103 126.894 98.877 119.049 94.502 C 111.204 90.128 109.893 77.26 116.12 65.762 L 116.12 65.762 Z" fill-rule="nonzero"/>
      <path stroke="#000000" stroke-width="2.0" stroke-linejoin="round" stroke-linecap="butt" d="M 150.226 90.544 C 156.453 79.046 167.861 73.272 175.706 77.647 C 179.473 79.748 181.898 83.956 182.448 89.346 C 182.997 94.735 181.626 100.865 178.635 106.387 C 172.408 117.885 161 123.659 153.155 119.285 C 145.31 114.91 143.998 102.042 150.226 90.544 L 150.226 90.544 Z" fill-rule="nonzero" style=""/>
      <path stroke="#000000" stroke-width="2.0" stroke-linejoin="round" stroke-linecap="butt" d="M 161.028 145.04 C 167.255 133.542 178.663 127.767 186.508 132.142 C 190.275 134.243 192.7 138.451 193.25 143.841 C 193.799 149.231 192.428 155.361 189.437 160.882 C 183.21 172.38 171.802 178.155 163.957 173.78 C 156.112 169.405 154.8 156.538 161.028 145.04 L 161.028 145.04 Z" fill-rule="nonzero" style=""/>
      <path stroke="#000000" stroke-width="2.0" stroke-linejoin="round" stroke-linecap="butt" d="M 144.051 181.724 C 143.814 177.677 141.91 169.741 141.196 165.059 C 140.482 160.377 140.083 158.156 139.765 153.632 C 139.448 149.109 139.848 142.998 139.293 137.919 C 138.737 132.84 138.257 126.968 136.431 123.158 C 134.605 119.348 131.592 116.884 128.338 115.058 C 125.085 113.233 121.436 111.727 116.911 112.203 C 112.387 112.679 106.35 115.929 101.192 117.914 C 96.033 119.898 92.385 122.284 85.958 124.11 C 79.53 125.935 68.339 126.566 62.624 128.868 C 56.91 131.17 54.131 133.872 51.67 137.919 C 49.208 141.967 47.301 148.074 47.856 153.153 C 48.412 158.232 51.432 164.981 55.004 168.394 C 58.576 171.807 63.334 171.964 69.286 173.631 C 75.238 175.298 84.843 174.349 90.716 178.396 C 96.589 182.444 100.32 193.472 104.526 197.916 C 108.732 202.361 111.111 204.35 115.953 205.064 C 120.795 205.778 129.131 204.822 133.576 202.202 C 138.021 199.582 140.875 192.757 142.62 189.344 C 144.366 185.931 144.289 185.772 144.051 181.724 L 144.051 181.724 Z" fill-rule="nonzero" style=""/>
    </g>
    <path d="M 65.358 82.565 C 71.49 71.354 82.723 65.723 90.448 69.989 C 94.157 72.037 96.545 76.141 97.086 81.396 C 97.627 86.652 96.277 92.629 93.332 98.012 C 87.2 109.224 75.967 114.854 68.242 110.588 C 60.517 106.323 59.226 93.776 65.358 82.565 Z" fill-rule="nonzero" style="stroke: rgb(255, 255, 255); fill: rgb(255, 255, 255);"/>
    <path d="m116.11995 65.762245l0 0c6.227333 -11.497963 17.635254 -17.272434 25.480316 -12.89764l0 0c3.7673187 2.1008492 6.192383 6.309063 6.7417145 11.698887c0.5493164 5.389824 -0.82211304 11.5197525 -3.8125916 17.041267l0 0c-6.2273254 11.497963 -17.635254 17.27243 -25.480309 12.897644l0 0c-7.8450546 -4.374794 -9.156471 -17.242203 -2.9291306 -28.740158z" fill-rule="nonzero" style="fill: rgb(255, 255, 255);"/>
    <path d="m150.2256 90.54437l0 0c6.2273407 -11.497955 17.635254 -17.27243 25.480316 -12.897636l0 0c3.7673187 2.1008453 6.192383 6.309067 6.7417145 11.698891c0.5493164 5.389824 -0.82211304 11.5197525 -3.8125916 17.041267l0 0c-6.2273254 11.497955 -17.635254 17.27243 -25.4803 12.897636l0 0c-7.8450623 -4.3747864 -9.156479 -17.242195 -2.9291382 -28.740158z" fill-rule="nonzero" style="fill: rgb(255, 255, 255);"/>
    <path d="m161.02762 145.03955l0 0c6.2273407 -11.497955 17.63527 -17.272423 25.480316 -12.897629l0 0c3.767334 2.1008453 6.192398 6.309067 6.7417145 11.698883c0.5493164 5.3898315 -0.82211304 11.51976 -3.8125763 17.041275l0 0c-6.2273407 11.497955 -17.63527 17.27243 -25.480316 12.897629l0 0c-7.845047 -4.3747864 -9.156479 -17.242188 -2.9291382 -28.740158z" fill-rule="nonzero" style="fill: rgb(255, 255, 255);"/>
    <path d="m144.0513 181.72409c-0.23738098 -4.0475006 -2.140808 -11.982788 -2.855133 -16.664764c-0.71432495 -4.6819763 -1.1136017 -6.9037323 -1.4308472 -11.427078c-0.31723022 -4.523361 0.08314514 -10.634003 -0.4725647 -15.713058c-0.5557251 -5.079071 -1.0359497 -10.951233 -2.8616943 -14.761353c-1.8257599 -3.8101273 -4.839508 -6.273628 -8.092819 -8.0993805c-3.2533188 -1.8257523 -6.9026337 -3.330986 -11.427086 -2.855133c-4.524452 0.47585297 -10.560699 3.725891 -15.719627 5.7102585c-5.1589203 1.984375 -8.806046 4.3702087 -15.233917 6.195961c-6.4278717 1.8257523 -17.618668 2.4569473 -23.333305 4.758545c-5.714634 2.3016052 -8.493191 5.003601 -10.95451 9.051102c-2.461319 4.0475006 -4.369114 10.154846 -3.813404 15.233917c0.55570984 5.079071 3.576023 11.827454 7.1476707 15.240494c3.5716476 3.413025 8.330196 3.5705414 14.282215 5.237686c5.952011 1.6671295 15.556625 0.7176056 21.429878 4.765106c5.873253 4.0475006 9.603523 15.075302 13.809639 19.519897c4.2061234 4.4445953 6.585396 6.4333496 11.427086 7.1476746c4.84169 0.71432495 13.178452 -0.24176025 17.623047 -2.8616943c4.4445953 -2.619934 7.2986298 -9.4449005 9.044525 -12.857925c1.7458954 -3.4130402 1.6682281 -3.5727386 1.4308472 -7.6202545z" fill-rule="nonzero" style="fill: rgb(255, 255, 255);"/>
    <g>
      <path d="M 128.435 141.918 C 128.39 138.722 128.96 134.123 127.951 131.339 C 126.941 128.556 124.922 126.576 122.379 125.219 C 119.837 123.863 116.111 122.645 112.695 123.2 C 109.28 123.756 105.145 127.142 101.886 128.551 C 98.626 129.96 96.568 130.776 93.138 131.657 C 89.708 132.538 85.011 132.643 81.306 133.837 C 77.6 135.032 73.369 136.331 70.905 138.822 C 68.442 141.312 66.705 144.945 66.524 148.781 C 66.343 152.617 67.473 159.058 69.818 161.84 C 72.163 164.623 76.882 164.062 80.595 165.474 C 84.309 166.887 88.636 167.739 92.099 170.313 C 95.563 172.889 98.716 177.864 101.374 180.924 C 104.032 183.983 104.987 187.288 108.049 188.67 C 111.111 190.052 116.267 190.201 119.747 189.214 C 123.227 188.226 126.88 185.513 128.931 182.743 C 130.981 179.972 131.807 175.99 132.052 172.591 C 132.298 169.191 131.044 166.027 130.405 162.346 C 129.767 158.666 128.554 153.914 128.225 150.509 C 127.897 147.104 128.481 145.112 128.435 141.918 Z" fill-rule="nonzero" style="fill: rgb(243, 200, 206);"/>
    </g>
    <g transform="matrix(0.981817, 0, 0, 0.952977, -1.572005, 4.398783)" style="">
      <path d="M 169.434 148.715 C 174.227 139.869 183.033 135.449 189.104 138.841 C 192.019 140.469 193.901 143.719 194.335 147.874 C 194.769 152.03 193.72 156.75 191.419 160.998 C 186.626 169.843 177.82 174.264 171.749 170.872 C 165.679 167.48 164.642 157.56 169.434 148.715 Z" fill-rule="nonzero" style="fill: rgb(243, 200, 206);"/>
      <path d="M 158.442 92.805 C 163.234 83.96 172.04 79.539 178.111 82.931 C 181.026 84.56 182.908 87.81 183.342 91.965 C 183.776 96.12 182.727 100.841 180.426 105.089 C 175.634 113.934 166.827 118.355 160.757 114.963 C 154.686 111.571 153.649 101.651 158.442 92.805 Z" fill-rule="nonzero" style="fill: rgb(243, 200, 206);"/>
      <path d="M 123.426 65.997 C 128.219 57.151 137.025 52.731 143.096 56.123 C 146.011 57.751 147.893 61.001 148.327 65.156 C 148.761 69.312 147.712 74.032 145.411 78.28 C 140.618 87.125 131.812 91.546 125.741 88.154 C 119.671 84.762 118.634 74.842 123.426 65.997 Z" fill-rule="nonzero" style="fill: rgb(243, 200, 206);"/>
      <path d="M 71.587 84.056 C 76.379 75.21 85.185 70.79 91.256 74.182 C 94.171 75.81 96.053 79.06 96.487 83.215 C 96.921 87.371 95.872 92.091 93.571 96.339 C 88.779 105.184 79.973 109.605 73.902 106.213 C 67.831 102.821 66.795 92.901 71.587 84.056 Z" fill-rule="nonzero" style="fill: rgb(243, 200, 206);"/>
    </g>
    <clipPath id="clip-1">
      <path d="m0 0l250.0 0l0 250.0l-250.0 0l0 -250.0z" clip-rule="nonzero"/>
    </clipPath>
    <g clip-path="url(#clip-1)" transform="matrix(1, 0, 0, 1, 190.75069, 121.863957)">
      <g>
        <path stroke="#000000" stroke-width="2.0" stroke-linejoin="round" stroke-linecap="butt" d="M 65.14 82.367 C 71.368 70.869 82.776 65.095 90.621 69.469 C 94.388 71.57 96.813 75.778 97.362 81.168 C 97.912 86.558 96.54 92.688 93.55 98.21 C 87.322 109.708 75.915 115.482 68.069 111.107 C 60.224 106.732 58.913 93.865 65.14 82.367 L 65.14 82.367 Z" fill-rule="nonzero" style=""/>
        <path stroke="#000000" stroke-width="2.0" stroke-linejoin="round" stroke-linecap="butt" d="M 116.12 65.762 C 122.347 54.264 133.755 48.49 141.6 52.865 C 145.368 54.965 147.793 59.174 148.342 64.563 C 148.891 69.953 147.52 76.083 144.529 81.605 C 138.302 93.103 126.894 98.877 119.049 94.502 C 111.204 90.128 109.893 77.26 116.12 65.762 L 116.12 65.762 Z" fill-rule="nonzero"/>
        <path stroke="#000000" stroke-width="2.0" stroke-linejoin="round" stroke-linecap="butt" d="M 150.226 90.544 C 156.453 79.046 167.861 73.272 175.706 77.647 C 179.473 79.748 181.898 83.956 182.448 89.346 C 182.997 94.735 181.626 100.865 178.635 106.387 C 172.408 117.885 161 123.659 153.155 119.285 C 145.31 114.91 143.998 102.042 150.226 90.544 L 150.226 90.544 Z" fill-rule="nonzero" style=""/>
        <path stroke="#000000" stroke-width="2.0" stroke-linejoin="round" stroke-linecap="butt" d="M 161.028 145.04 C 167.255 133.542 178.663 127.767 186.508 132.142 C 190.275 134.243 192.7 138.451 193.25 143.841 C 193.799 149.231 192.428 155.361 189.437 160.882 C 183.21 172.38 171.802 178.155 163.957 173.78 C 156.112 169.405 154.8 156.538 161.028 145.04 L 161.028 145.04 Z" fill-rule="nonzero" style=""/>
        <path stroke="#000000" stroke-width="2.0" stroke-linejoin="round" stroke-linecap="butt" d="M 144.051 181.724 C 143.814 177.677 141.91 169.741 141.196 165.059 C 140.482 160.377 140.083 158.156 139.765 153.632 C 139.448 149.109 139.848 142.998 139.293 137.919 C 138.737 132.84 138.257 126.968 136.431 123.158 C 134.605 119.348 131.592 116.884 128.338 115.058 C 125.085 113.233 121.436 111.727 116.911 112.203 C 112.387 112.679 106.35 115.929 101.192 117.914 C 96.033 119.898 92.385 122.284 85.958 124.11 C 79.53 125.935 68.339 126.566 62.624 128.868 C 56.91 131.17 54.131 133.872 51.67 137.919 C 49.208 141.967 47.301 148.074 47.856 153.153 C 48.412 158.232 51.432 164.981 55.004 168.394 C 58.576 171.807 63.334 171.964 69.286 173.631 C 75.238 175.298 84.843 174.349 90.716 178.396 C 96.589 182.444 100.32 193.472 104.526 197.916 C 108.732 202.361 111.111 204.35 115.953 205.064 C 120.795 205.778 129.131 204.822 133.576 202.202 C 138.021 199.582 140.875 192.757 142.62 189.344 C 144.366 185.931 144.289 185.772 144.051 181.724 L 144.051 181.724 Z" fill-rule="nonzero" style=""/>
      </g>
      <path d="M 65.358 82.565 C 71.49 71.354 82.723 65.723 90.448 69.989 C 94.157 72.037 96.545 76.141 97.086 81.396 C 97.627 86.652 96.277 92.629 93.332 98.012 C 87.2 109.224 75.967 114.854 68.242 110.588 C 60.517 106.323 59.226 93.776 65.358 82.565 Z" fill-rule="nonzero" style="stroke: rgb(255, 255, 255); fill: rgb(255, 255, 255);"/>
      <path d="m116.11995 65.762245l0 0c6.227333 -11.497963 17.635254 -17.272434 25.480316 -12.89764l0 0c3.7673187 2.1008492 6.192383 6.309063 6.7417145 11.698887c0.5493164 5.389824 -0.82211304 11.5197525 -3.8125916 17.041267l0 0c-6.2273254 11.497963 -17.635254 17.27243 -25.480309 12.897644l0 0c-7.8450546 -4.374794 -9.156471 -17.242203 -2.9291306 -28.740158z" fill-rule="nonzero" style="fill: rgb(255, 255, 255);"/>
      <path d="m150.2256 90.54437l0 0c6.2273407 -11.497955 17.635254 -17.27243 25.480316 -12.897636l0 0c3.7673187 2.1008453 6.192383 6.309067 6.7417145 11.698891c0.5493164 5.389824 -0.82211304 11.5197525 -3.8125916 17.041267l0 0c-6.2273254 11.497955 -17.635254 17.27243 -25.4803 12.897636l0 0c-7.8450623 -4.3747864 -9.156479 -17.242195 -2.9291382 -28.740158z" fill-rule="nonzero" style="fill: rgb(255, 255, 255);"/>
      <path d="m161.02762 145.03955l0 0c6.2273407 -11.497955 17.63527 -17.272423 25.480316 -12.897629l0 0c3.767334 2.1008453 6.192398 6.309067 6.7417145 11.698883c0.5493164 5.3898315 -0.82211304 11.51976 -3.8125763 17.041275l0 0c-6.2273407 11.497955 -17.63527 17.27243 -25.480316 12.897629l0 0c-7.845047 -4.3747864 -9.156479 -17.242188 -2.9291382 -28.740158z" fill-rule="nonzero" style="fill: rgb(255, 255, 255);"/>
      <path d="m144.0513 181.72409c-0.23738098 -4.0475006 -2.140808 -11.982788 -2.855133 -16.664764c-0.71432495 -4.6819763 -1.1136017 -6.9037323 -1.4308472 -11.427078c-0.31723022 -4.523361 0.08314514 -10.634003 -0.4725647 -15.713058c-0.5557251 -5.079071 -1.0359497 -10.951233 -2.8616943 -14.761353c-1.8257599 -3.8101273 -4.839508 -6.273628 -8.092819 -8.0993805c-3.2533188 -1.8257523 -6.9026337 -3.330986 -11.427086 -2.855133c-4.524452 0.47585297 -10.560699 3.725891 -15.719627 5.7102585c-5.1589203 1.984375 -8.806046 4.3702087 -15.233917 6.195961c-6.4278717 1.8257523 -17.618668 2.4569473 -23.333305 4.758545c-5.714634 2.3016052 -8.493191 5.003601 -10.95451 9.051102c-2.461319 4.0475006 -4.369114 10.154846 -3.813404 15.233917c0.55570984 5.079071 3.576023 11.827454 7.1476707 15.240494c3.5716476 3.413025 8.330196 3.5705414 14.282215 5.237686c5.952011 1.6671295 15.556625 0.7176056 21.429878 4.765106c5.873253 4.0475006 9.603523 15.075302 13.809639 19.519897c4.2061234 4.4445953 6.585396 6.4333496 11.427086 7.1476746c4.84169 0.71432495 13.178452 -0.24176025 17.623047 -2.8616943c4.4445953 -2.619934 7.2986298 -9.4449005 9.044525 -12.857925c1.7458954 -3.4130402 1.6682281 -3.5727386 1.4308472 -7.6202545z" fill-rule="nonzero" style="fill: rgb(255, 255, 255);"/>
      <g>
        <path d="M 128.435 141.918 C 128.39 138.722 128.96 134.123 127.951 131.339 C 126.941 128.556 124.922 126.576 122.379 125.219 C 119.837 123.863 116.111 122.645 112.695 123.2 C 109.28 123.756 105.145 127.142 101.886 128.551 C 98.626 129.96 96.568 130.776 93.138 131.657 C 89.708 132.538 85.011 132.643 81.306 133.837 C 77.6 135.032 73.369 136.331 70.905 138.822 C 68.442 141.312 66.705 144.945 66.524 148.781 C 66.343 152.617 67.473 159.058 69.818 161.84 C 72.163 164.623 76.882 164.062 80.595 165.474 C 84.309 166.887 88.636 167.739 92.099 170.313 C 95.563 172.889 98.716 177.864 101.374 180.924 C 104.032 183.983 104.987 187.288 108.049 188.67 C 111.111 190.052 116.267 190.201 119.747 189.214 C 123.227 188.226 126.88 185.513 128.931 182.743 C 130.981 179.972 131.807 175.99 132.052 172.591 C 132.298 169.191 131.044 166.027 130.405 162.346 C 129.767 158.666 128.554 153.914 128.225 150.509 C 127.897 147.104 128.481 145.112 128.435 141.918 Z" fill-rule="nonzero" style="fill: rgb(243, 200, 206);"/>
      </g>
      <g transform="matrix(0.981817, 0, 0, 0.952977, -1.572005, 4.398783)" style="">
        <path d="M 169.434 148.715 C 174.227 139.869 183.033 135.449 189.104 138.841 C 192.019 140.469 193.901 143.719 194.335 147.874 C 194.769 152.03 193.72 156.75 191.419 160.998 C 186.626 169.843 177.82 174.264 171.749 170.872 C 165.679 167.48 164.642 157.56 169.434 148.715 Z" fill-rule="nonzero" style="fill: rgb(243, 200, 206);"/>
        <path d="M 158.442 92.805 C 163.234 83.96 172.04 79.539 178.111 82.931 C 181.026 84.56 182.908 87.81 183.342 91.965 C 183.776 96.12 182.727 100.841 180.426 105.089 C 175.634 113.934 166.827 118.355 160.757 114.963 C 154.686 111.571 153.649 101.651 158.442 92.805 Z" fill-rule="nonzero" style="fill: rgb(243, 200, 206);"/>
        <path d="M 123.426 65.997 C 128.219 57.151 137.025 52.731 143.096 56.123 C 146.011 57.751 147.893 61.001 148.327 65.156 C 148.761 69.312 147.712 74.032 145.411 78.28 C 140.618 87.125 131.812 91.546 125.741 88.154 C 119.671 84.762 118.634 74.842 123.426 65.997 Z" fill-rule="nonzero" style="fill: rgb(243, 200, 206);"/>
        <path d="M 71.587 84.056 C 76.379 75.21 85.185 70.79 91.256 74.182 C 94.171 75.81 96.053 79.06 96.487 83.215 C 96.921 87.371 95.872 92.091 93.571 96.339 C 88.779 105.184 79.973 109.605 73.902 106.213 C 67.831 102.821 66.795 92.901 71.587 84.056 Z" fill-rule="nonzero" style="fill: rgb(243, 200, 206);"/>
      </g>
    </g>
  </g>
</svg>